<mxfile host="app.diagrams.net" modified="2022-11-18T08:00:50.583Z" agent="5.0 (Windows NT 10.0; Win64; x64) AppleWebKit/537.36 (KHTML, like Gecko) Chrome/107.0.0.0 Safari/537.36" etag="IGnDomzqoQNqxh-0jW-z" version="20.5.3" type="github">
  <diagram id="KFWGAWVJjpUbI3NEWqW6" name="第 1 页">
    <mxGraphModel dx="1038" dy="615" grid="1" gridSize="10" guides="1" tooltips="1" connect="1" arrows="1" fold="1" page="1" pageScale="1" pageWidth="827" pageHeight="1169" math="0" shadow="0">
      <root>
        <mxCell id="0" />
        <mxCell id="1" parent="0" />
        <mxCell id="c2DfkQYdV7KyCgr4eMFf-10" style="edgeStyle=orthogonalEdgeStyle;rounded=0;orthogonalLoop=1;jettySize=auto;html=1;exitX=1;exitY=0.5;exitDx=0;exitDy=0;entryX=0;entryY=0.5;entryDx=0;entryDy=0;fontFamily=Courier New;fontSize=24;" edge="1" parent="1" source="c2DfkQYdV7KyCgr4eMFf-1" target="c2DfkQYdV7KyCgr4eMFf-3">
          <mxGeometry relative="1" as="geometry" />
        </mxCell>
        <mxCell id="c2DfkQYdV7KyCgr4eMFf-1" value="&lt;font style=&quot;font-size: 24px;&quot; face=&quot;Courier New&quot;&gt;合并代码&lt;/font&gt;" style="rounded=1;whiteSpace=wrap;html=1;" vertex="1" parent="1">
          <mxGeometry x="60" y="70" width="120" height="60" as="geometry" />
        </mxCell>
        <mxCell id="c2DfkQYdV7KyCgr4eMFf-11" style="edgeStyle=orthogonalEdgeStyle;rounded=0;orthogonalLoop=1;jettySize=auto;html=1;exitX=1;exitY=0.5;exitDx=0;exitDy=0;entryX=0;entryY=0.5;entryDx=0;entryDy=0;fontFamily=Courier New;fontSize=24;" edge="1" parent="1" source="c2DfkQYdV7KyCgr4eMFf-3" target="c2DfkQYdV7KyCgr4eMFf-4">
          <mxGeometry relative="1" as="geometry" />
        </mxCell>
        <mxCell id="c2DfkQYdV7KyCgr4eMFf-3" value="&lt;font style=&quot;font-size: 24px;&quot; face=&quot;Courier New&quot;&gt;下线服务&lt;/font&gt;" style="rounded=1;whiteSpace=wrap;html=1;" vertex="1" parent="1">
          <mxGeometry x="250" y="70" width="120" height="60" as="geometry" />
        </mxCell>
        <mxCell id="c2DfkQYdV7KyCgr4eMFf-12" style="edgeStyle=orthogonalEdgeStyle;rounded=0;orthogonalLoop=1;jettySize=auto;html=1;exitX=1;exitY=0.5;exitDx=0;exitDy=0;entryX=0;entryY=0.5;entryDx=0;entryDy=0;fontFamily=Courier New;fontSize=24;" edge="1" parent="1" source="c2DfkQYdV7KyCgr4eMFf-4" target="c2DfkQYdV7KyCgr4eMFf-5">
          <mxGeometry relative="1" as="geometry" />
        </mxCell>
        <mxCell id="c2DfkQYdV7KyCgr4eMFf-4" value="&lt;font style=&quot;font-size: 24px;&quot; face=&quot;Courier New&quot;&gt;备份数据&lt;/font&gt;" style="rounded=1;whiteSpace=wrap;html=1;" vertex="1" parent="1">
          <mxGeometry x="440" y="70" width="120" height="60" as="geometry" />
        </mxCell>
        <mxCell id="c2DfkQYdV7KyCgr4eMFf-13" style="edgeStyle=orthogonalEdgeStyle;rounded=0;orthogonalLoop=1;jettySize=auto;html=1;exitX=0.5;exitY=1;exitDx=0;exitDy=0;fontFamily=Courier New;fontSize=24;" edge="1" parent="1" source="c2DfkQYdV7KyCgr4eMFf-5" target="c2DfkQYdV7KyCgr4eMFf-6">
          <mxGeometry relative="1" as="geometry" />
        </mxCell>
        <mxCell id="c2DfkQYdV7KyCgr4eMFf-5" value="&lt;font style=&quot;font-size: 24px;&quot; face=&quot;Courier New&quot;&gt;执行脚本&lt;/font&gt;" style="rounded=1;whiteSpace=wrap;html=1;" vertex="1" parent="1">
          <mxGeometry x="630" y="70" width="120" height="60" as="geometry" />
        </mxCell>
        <mxCell id="c2DfkQYdV7KyCgr4eMFf-14" style="edgeStyle=orthogonalEdgeStyle;rounded=0;orthogonalLoop=1;jettySize=auto;html=1;exitX=0;exitY=0.5;exitDx=0;exitDy=0;entryX=1;entryY=0.5;entryDx=0;entryDy=0;fontFamily=Courier New;fontSize=24;" edge="1" parent="1" source="c2DfkQYdV7KyCgr4eMFf-6" target="c2DfkQYdV7KyCgr4eMFf-7">
          <mxGeometry relative="1" as="geometry" />
        </mxCell>
        <mxCell id="c2DfkQYdV7KyCgr4eMFf-6" value="&lt;font style=&quot;font-size: 24px;&quot; face=&quot;Courier New&quot;&gt;启动服务&lt;/font&gt;" style="rounded=1;whiteSpace=wrap;html=1;" vertex="1" parent="1">
          <mxGeometry x="630" y="200" width="120" height="60" as="geometry" />
        </mxCell>
        <mxCell id="c2DfkQYdV7KyCgr4eMFf-15" style="edgeStyle=orthogonalEdgeStyle;rounded=0;orthogonalLoop=1;jettySize=auto;html=1;exitX=0;exitY=0.5;exitDx=0;exitDy=0;entryX=1;entryY=0.5;entryDx=0;entryDy=0;fontFamily=Courier New;fontSize=24;" edge="1" parent="1" source="c2DfkQYdV7KyCgr4eMFf-7" target="c2DfkQYdV7KyCgr4eMFf-8">
          <mxGeometry relative="1" as="geometry" />
        </mxCell>
        <mxCell id="c2DfkQYdV7KyCgr4eMFf-7" value="&lt;font face=&quot;Courier New&quot;&gt;&lt;span style=&quot;font-size: 24px;&quot;&gt;校验服务&lt;/span&gt;&lt;/font&gt;" style="rounded=1;whiteSpace=wrap;html=1;" vertex="1" parent="1">
          <mxGeometry x="440" y="200" width="120" height="60" as="geometry" />
        </mxCell>
        <mxCell id="c2DfkQYdV7KyCgr4eMFf-8" value="&lt;span style=&quot;font-family: &amp;quot;Courier New&amp;quot;; font-size: 24px;&quot;&gt;代码版本&lt;/span&gt;" style="rounded=1;whiteSpace=wrap;html=1;" vertex="1" parent="1">
          <mxGeometry x="260" y="200" width="120" height="60" as="geometry" />
        </mxCell>
      </root>
    </mxGraphModel>
  </diagram>
</mxfile>
